<svg class="dft" xmlns="http://www.w3.org/2000/svg">
  <symbol id="logo-jp" viewBox="0 0 90.68 118.27">
    <g>
        <path d="M80.85,65C78.5,69.22,78,76.54,74.37,78.69c-.72-4,.47-6.77,
          1-11-1-1.69-3.93-2.28-5.28-1.68-1.8,5.2-.65,13.72,2.4,16.31,7.68,
          6.51,6.36-12.39,10.08-14.87a6.11,6.11,0,0,0,2.64,1.2c-1.51,8.86-1.54,
          18-2.64,27.35-.84,7.16-3.88,13.15-5.76,19.43.89,1.11,1.2,2.8,3.12,
          2.88,2.55-2.32,2.58-5.78,3.36-9.12.93-4,3.12-8.35,2.88-13.43.24-.59,
          1.06.47,1-.72a191.52,191.52,0,0,1,3.59-29.27C88.57,61.78,84.72,64.17,80.85,65Z"/>
        <path d="M77.25,42.7C75.59,41.29,73.08,41.62,71,41c-4.19,2.5-7.58,
          8.66-5,14.4a235.47,235.47,0,0,0-25.19,7.91c-1.05-.39-1-1.84-2.39-1.92-2.43,
          2.72.61,7,3.11,7.44,1.89.32,4.89-.85,7.2-1.68,4-1.46,8.5-4.1,11.76-4.08-1.18.59-2.6.92-3.12,
          2.16.69.12,1.38-1,1.68-.48-4.33,5.61-9.69,11-13.44,17-2.44,3.91-5,8-9.83,
          9.12-.94-1-1.78-3.29-3.84-2.4.69,2,0,4.86,2.64,5.76.55-.49.92-1.15,
          1.44-1.68,2.36-.86,4.74-1,6.71-1.44,6-5.41,8.85-13.87,15.84-18.23,2.92-2.5,
          4.7-6.24,7.67-8.88,3.63-3.22,9.29-3.61,13-6.48C80.26,53.19,80.61,45.56,
          77.25,42.7Zm-2.64,11c-1,1.46-3.18,1.73-4.08,2.39-1-3.25.95-8.69,
          3.6-10.55C75.58,47.41,76.07,51.68,74.61,53.74Z"/>
        <path d="M33.59,42.22c.88.48,1,1.74,1.68,2.4,3.14-1.06,3,2.84,5.28,
          2.64,2-.18,1.8-4.41,1.91-6.72.45-9,1.65-16.72,9.36-17.51-.16,5.76-.75,
          15.23-1.68,22.55-.48,3.76-1.13,7.15-4.08,7.92-.95-1.35-3.3-3.39-2.4-5-1.06.27-.86-.74-1.2-1.2a8,
          8,0,0,0-3.83.72c.7,2.5,2.82,4.09,4.31,6s2.69,4.42,5,5.51c1-.18,1.1-1.3,
          1.92-1.68.86.07,1.16-.44,1.92-.48,2.55-2.27,2.15-7.06,2.88-12,
          .66-4.5,1.65-10.1,2.16-14.39.78-6.63.09-11.12-5.52-11.76-4.05-.46-6.62,2-8.4,
          4.32-2.51,3.26-3.86,7.89-5.75,11.75-.7-.54-1.6-.35-3.12-.48-.94.81,1,1.57.24,
          2.16-.91-.38-2.45.24-3.36-.24-1.9,2.66-3,6.08-6.24,7.44.32-1.32,0-1.62-.24-2.88,
          1.6-3.53.42-9.92,1.68-13.43.82-2.29,5.54-3.29,7.2-4.8a3.47,3.47,0,0,0,
          2.88-.24c.89-2.45-1-2.61-2.4-4.08-.62-.63-1-1.94-1.92-2.88-1.59-1.66-3.59-2.93-4.32-4.08a9.89,
          9.89,0,0,1-1.2-2.87c0-1.48,1.65-2.81,1.44-4.32C27.47,1.89,23.11,0,20.87,0c1.43,
          4.1,1.16,8.24,0,13.67-1.07,5-2.18,9.52-4.07,11.28a7.8,7.8,0,0,1-2.4.48c-.5,2-3.36,
          3.16-3.84,5.28a5.78,5.78,0,0,0,1.92,5c5.23-.14,7.85-6.21,12.23-7.19-.26,
          2.54-.45,5.14-.48,7.91-1-.27-1.52.13-2.4-.48a3.2,3.2,0,0,1-1.92,1.2c-1,
          3.83-3.7,5.53-6.23,7.92C9.15,49.37,4.77,53.6,0,57.33c.73,1.66.56,4.72,
          2.64,5,1,.15,2.11-1.11,3.12-1.68,5-2.82,12.52-6.32,16.31-8.87,1.28,7.48-1.55,
          16.42,1.44,21.83a6.22,6.22,0,0,0,3.12.24c1-1.26,0-2.44-.24-3.84-.93-5.82-.66-13.26-1.2-20.63a36.5,
          36.5,0,0,1,6.48-5A3,3,0,0,1,33.59,42.22ZM27.11,14.39A14.78,14.78,0,0,1,30.23,18c-.47,
          1.21-2.21,1.15-2.88,2.16C26.79,18.71,27.27,16.23,27.11,14.39ZM20.39,24c.67-2.76,3-6.12,
          4.08-8.64,1,1.17.25,4.07.48,6A37.07,37.07,0,0,0,20.39,24ZM18.71,48.46c.1-1,1.65-2.51,
          2.88-3.12C21.73,47.47,19.64,47.38,18.71,48.46Z"/>
    </g>
  </symbol>

  <symbol id="logo-en" viewBox="0 0 184.96 71.73">
    <g>
      <path class="cls-1" d="M178.49,20.87c-.38,5-2.77,9.26-4.56,13.67s-3.07,9.21-4.8,13.68c-2.53,6.53-7.06,
        12.61-9.84,18.71,1.12-.19,1.59-.81,2.4-.72,3.28-5.12,6.07-10.73,9.12-16.07,2.6-2,3.9-5.24,5.76-8.16A83.13,
        83.13,0,0,0,185,25.91C184.27,22.83,182.14,20.22,178.49,20.87Z"/>
      <path class="cls-1" d="M160.73,21.35c.16,5.62.53,11.88,3.12,16.55,1.24,2.24,2.88,5.41,6,4.08.05-.19,
        0-.47.24-.48a26.8,26.8,0,0,0-2.64-5.76,8.64,8.64,0,0,1-1-3.36C165.6,27.24,165.77,21.08,160.73,21.35Z"/>
      <path class="cls-1" d="M120.19,48.22c-1.74-6.59-4.84-13.38-6.24-19.19a14.88,14.88,0,0,1-.48-2.64c.58-1.54,
        4.57-1.61,3.84-3.84-1.66-1.77-4.34-2.54-6-4.32-1.09-4.1-2-8.38-5-10.56-1.36-3.91-5.42-6.14-9.6-6.47.19,
        3.55-1.72,5-2.4,7.67-1.41.59-3.1.9-4.08,1.92a34,34,0,0,0-10.31,7c-2.94,2.72-6.39,5.28-8.16,9.12-1.72.67-2.1,
        2.69-3.84,3.35-.14,2.35-2.34,2.62-2.64,4.8-.75-.26-.63-.11-1.2.24a2,2,0,0,0,0,1.68c-1.63-.31-1.51,3.1-3.11,
        3.6-.11-3.5-2.69-6.69-2.88-10.07-.13-2.2.08-3.58-1.44-4.8a10.59,10.59,0,0,0-12,3.12c.17,6.31-3.86,12.08-2.88,
        18.71.46,3.06,2.56,6.55,4.08,9.11s4.67,4.89,4.32,7.92C44,59.83,38.63,53,34.55,
        46.3c-1.47-2.4-2.29-5-3.6-7.44-1-2-3-3.53-2.64-6.48-1.62-3.58-4.27-6.12-4.8-10.79-2-2-2.41-5.59-3.12-8.88C23.58,
        8.27,18.45,6,16.55,3.12c.08,1-.5.12-1,.24C10.93,2,4.79-.64,0,2.16,4,9,8.44,15.31,12.24,22.31c8,11.85,15.34,
        25.88,25.43,36.46,3.9,4.1,8.81,9.78,15.11,10.8,2.32-2.05,2.5-4.82,4.08-7.44,0-.67-1.11-1.42-.48-1.92,1.77,
        3.42,7.32,4.45,9.83,1.68,1.2-12.64,6-21.68,12-29.51.17-.73-.25-.87-.24-1.44,1.55-1.89,3.91-4.14,
        4.69-6.2-.18.23-.5.32-.37-.27,3.39-2.69,6.54-6.89,9.59-9.12-2.6,6.36-5,12.91-6,20.87-1.69,1.6-3.88,2.69-5.52,
        4.32-1.53.71-3.09,1.39-3.84,2.88,1.11,1,2.37,2.57,4.08,2.88,1.29.23,2.87-1,3.6.48.42,7.1-6.57,16.9,1.92,
        18.95a12.57,12.57,0,0,0,3.11-4.32c-.93-6.7,1.07-14.32,2.4-21.35C96.86,36.64,101.86,33,107.48,30c2.94,8.51,
        8.06,19.23,9.11,30.7.47,5.12,1.09,10.52,5.52,11,.28-1.42,1.11.29,1.44-.72-.58-4.93-.11-9.83-.72-14.64C122.56,
        54.27,120.92,51,120.19,48.22ZM48.94,37.9A77.87,77.87,0,0,1,53.5,55.17C50.09,50.92,46.73,45.07,48.94,
        37.9ZM96.2,30c.82-5.58,4.38-10.5,6.48-15.6,1.88,2.44,2,6.62,3.12,9.84A47.29,47.29,0,0,0,96.2,30Z"/>
      <path class="cls-1" d="M159.77,0c-5.26-.07-4.11,6.27-6.71,8.87-.64-.29-1.77-.93-2.4-.48s-.51,1.9-1,2.64c-6,
        3.16-12.55,5.84-18.71,8.88-.58-.31-.89-.88-1.92-.72-.49,1.49,0,2.51-.24,4.08,3,5.45,6.95,2.51,11,.24,2.34-1.3,
        4.35-2.54,6-2.88-4.94,9.62-7.17,21.94-9.12,34.54-1.48.91-3.3,4.87-1,6,1.34.14,1.14-1.26,2.16-1.44a15.48,15.48,
        0,0,1,2.88-9.35c3-12.19,8.27-22.12,13-32.63,3.46.6,8-.18,11-.48C164.9,10.89,165.59,2.18,159.77,0Zm-1.43,
        13.91a56.64,56.64,0,0,1,2.15-6.48c.56,2,.47,4.65,1.2,6.48C160.19,14.06,159.42,13.57,158.34,13.91Z"/>
    </g>
  </symbol>
</svg>
